<svg height="512" viewBox="0 0 128 128" width="512" xmlns="http://www.w3.org/2000/svg" xmlns:xlink="http://www.w3.org/1999/xlink"><linearGradient id="a" gradientUnits="userSpaceOnUse" x1="109.234" x2="18.766" y1="109.317" y2="18.849"><stop offset="0" stop-color="#d7245a"/><stop offset="1" stop-color="#4aceef"/></linearGradient><path d="m64 .083a64 64 0 1 0 64 64 64.072 64.072 0 0 0 -64-64zm0 124.5a60.5 60.5 0 1 1 60.5-60.5 60.569 60.569 0 0 1 -60.5 60.5zm56-60.5a56 56 0 0 1 -112 0 1.75 1.75 0 0 1 3.5 0 52.483 52.483 0 1 0 2.593-16.31 1.75 1.75 0 1 1 -3.326-1.089 56 56 0 0 1 109.233 17.399zm-61.5 30.733a1.75 1.75 0 0 0 1.75-1.75v-58.132a1.75 1.75 0 0 0 -1.75-1.75h-23.066a1.75 1.75 0 0 0 -1.75 1.75v58.132a1.75 1.75 0 0 0 1.75 1.75zm-21.316-58.132h19.567v54.632h-19.567zm13.317 4.5h-7.067a1.75 1.75 0 0 0 -1.75 1.75v42.13a1.75 1.75 0 0 0 1.75 1.75h7.066a1.75 1.75 0 0 0 1.75-1.75v-42.129a1.75 1.75 0 0 0 -1.75-1.75zm-1.75 42.13h-3.567v-38.629h3.567zm45.564-27.5v6.186a1.75 1.75 0 0 1 -3.5 0v-6.187a1.75 1.75 0 1 1 3.5 0zm0-14.438a1.75 1.75 0 0 1 -3.5 0v-4.692h-19.566v54.632h19.566v-14.878a1.75 1.75 0 1 1 3.5 0v16.628a1.749 1.749 0 0 1 -1.75 1.75h-23.065a1.749 1.749 0 0 1 -1.75-1.75v-58.132a1.749 1.749 0 0 1 1.75-1.75h23.065a1.749 1.749 0 0 1 1.75 1.75zm-16.815-.191a1.749 1.749 0 0 0 -1.75 1.75v42.13a1.749 1.749 0 0 0 1.75 1.75h7.066a1.749 1.749 0 0 0 1.75-1.75v-42.13a1.749 1.749 0 0 0 -1.75-1.75zm5.316 42.13h-3.567v-38.63h3.566z" fill="url(#a)"/></svg>