<svg height="512" viewBox="0 0 60 61" width="512" xmlns="http://www.w3.org/2000/svg"><g id="040---Request-Transfusion-Form"><path id="Shape" d="m60 28c-.0175182-1.6091711-.9934684-3.0526638-2.480256-3.6684569s-3.1975714-.2850836-4.347744.8404569l-9.172 9.172v-23.104c-.0004068-.5985675-.1411752-1.1886988-.411-1.723-.427-.889-.087-.429-7-7.344-.3515279-.34047992-.7600507-.61666432-1.207-.816-1.132-.505 1.042-.357-31.382-.357-2.209139 0-4 1.790861-4 4v52c0 2.209139 1.790861 4 4 4h36c2.209139 0 4-1.790861 4-4v-11.343l12.76-12.757 1.24 1.1-4.3 4.29c-.2602871.250712-.3650501.6223558-.2740261.9720992.0910241.3497435.363671.6231628.7131556.7151758.3494845.0920131.7214232-.0116982.9728705-.271275l4.3-4.291c.3782671-.385352.5865924-.9060542.5785142-1.4459772-.0080782-.5399231-.2318879-1.0541598-.6215142-1.4280228l-1.2-1.064c.909-.899 1.831-1.712 1.831-3.477zm-5.414-1.414c.5747512-.5637579 1.4306539-.7297299 2.1744651-.4216605s1.2317111 1.0306135 1.2395349 1.8356605c.0014371.5306972-.2095879 1.0398938-.586 1.414l-4.243 4.243-2.828-2.828zm-15.586 21.243-2.828-2.829 12.757-12.757 2.828 2.828zm-4.937 2.12 1.108-3.122 2.006 2.007zm6.523-40.949h-3.586c-.5522847 0-1-.44771525-1-1v-3.586zm1.414 48c0 1.1045695-.8954305 2-2 2h-36c-1.1045695 0-2-.8954305-2-2v-52c0-1.1045695.8954305-2 2-2 32.163 0 29.7-.013 30 .024v4.976c0 1.65685425 1.3431458 3 3 3h4.976c.037.3.024-1.8.024 25.344-3.882 3.881-8.027 8.067-7.96 7.966-.271.281-.346.7-1.861 4.97-.1341372.3787861-.1518986.7890383-.051 1.178l-.906.906c-.2859079.2859943-.3714219.7160366-.216678 1.0896546.1547439.3736179.5192821.6172591.923678.6173454.529 0 .687-.272 1.612-1.2.8.2.716.113 5.793-1.687.5-.3-.023.161 2.666-2.528z"/><path id="Shape" d="m22 55h-15c-.55228475 0-1 .4477153-1 1s.44771525 1 1 1h15c.5522847 0 1-.4477153 1-1s-.4477153-1-1-1z"/><path id="Shape" d="m22 51h-15c-.55228475 0-1 .4477153-1 1s.44771525 1 1 1h15c.5522847 0 1-.4477153 1-1s-.4477153-1-1-1z"/><path id="Shape" d="m28 51h-2c-.5522847 0-1 .4477153-1 1s.4477153 1 1 1h2c.5522847 0 1-.4477153 1-1s-.4477153-1-1-1z"/><path id="Shape" d="m7 49h3c.5522847 0 1-.4477153 1-1s-.4477153-1-1-1h-3c-.55228475 0-1 .4477153-1 1s.44771525 1 1 1z"/><path id="Shape" d="m29 47h-15c-.5522847 0-1 .4477153-1 1s.4477153 1 1 1h15c.5522847 0 1-.4477153 1-1s-.4477153-1-1-1z"/><path id="Shape" d="m7 45h18c.5522847 0 1-.4477153 1-1s-.4477153-1-1-1h-18c-.55228475 0-1 .4477153-1 1s.44771525 1 1 1z"/><path id="Shape" d="m30 43h-1c-.5522847 0-1 .4477153-1 1s.4477153 1 1 1h1c.5522847 0 1-.4477153 1-1s-.4477153-1-1-1z"/><path id="Shape" d="m7 41h2c.55228475 0 1-.4477153 1-1s-.44771525-1-1-1h-2c-.55228475 0-1 .4477153-1 1s.44771525 1 1 1z"/><path id="Shape" d="m12 40c0 .5522847.4477153 1 1 1h20c.5522847 0 1-.4477153 1-1s-.4477153-1-1-1h-20c-.5522847 0-1 .4477153-1 1z"/><path id="Shape" d="m7 37h24c.5522847 0 1-.4477153 1-1s-.4477153-1-1-1h-24c-.55228475 0-1 .4477153-1 1s.44771525 1 1 1z"/><path id="Shape" d="m35 37h1c.5522847 0 1-.4477153 1-1s-.4477153-1-1-1h-1c-.5522847 0-1 .4477153-1 1s.4477153 1 1 1z"/><path id="Shape" d="m13 30h6v2c0 .5522847.4477153 1 1 1s1-.4477153 1-1v-2h6c1.6568542 0 3-1.3431458 3-3v-16c0-1.65685425-1.3431458-3-3-3h-1v-1c0-1.1045695-.8954305-2-2-2h-8c-1.1045695 0-2 .8954305-2 2v1h-1c-1.6568542 0-3 1.34314575-3 3v16c0 1.6568542 1.3431458 3 3 3zm-1-19c0-.5522847.4477153-1 1-1h1c1.1045695 0 2-.8954305 2-2v-1h8v1c0 1.1045695.8954305 2 2 2h1c.5522847 0 1 .4477153 1 1v16c0 .5522847-.4477153 1-1 1h-14c-.5522847 0-1-.4477153-1-1z"/><path id="Shape" d="m16 26h8c1.1045695 0 2-.8954305 2-2v-10c0-1.1045695-.8954305-2-2-2h-8c-1.1045695 0-2 .8954305-2 2v10c0 1.1045695.8954305 2 2 2zm0-2v-2h3c.5522847 0 1-.4477153 1-1s-.4477153-1-1-1h-3v-2h8v6zm8-10v2h-8v-2z"/></g></svg>